<svg xmlns="http://www.w3.org/2000/svg" viewBox="0 0 450.28 140.5"><defs><style>.cls-1{fill:#4a434f;}.cls-2{fill:#df4090;}</style></defs><g id="Layer_2" data-name="Layer 2"><g id="Layer_1-2" data-name="Layer 1"><path class="cls-1" d="M181.08,101.14V35.62h13.18V89.43h27.4v11.71Z"/><path class="cls-1" d="M225.37,77a26,26,0,0,1,2-10.4,22.84,22.84,0,0,1,5.5-7.93,25.39,25.39,0,0,1,7.87-4.93A24.93,24.93,0,0,1,250,52a22.43,22.43,0,0,1,8.23,1.69A13.94,13.94,0,0,1,265,59V53.07h12.57v48.07H265V94.93a13.48,13.48,0,0,1-6.5,5.28,21.91,21.91,0,0,1-8.41,1.84,25.07,25.07,0,0,1-12-3,23.55,23.55,0,0,1-9.12-8.81A25,25,0,0,1,225.37,77Zm13.18,0a12.12,12.12,0,0,0,4,9.29,13.79,13.79,0,0,0,18.55.15A12.1,12.1,0,0,0,265,77,12,12,0,0,0,261,67.6a13.75,13.75,0,0,0-18.51.12A12.11,12.11,0,0,0,238.55,77Z"/><path class="cls-1" d="M288.56,101.14V53.07h12.57v7.19a14.54,14.54,0,0,1,6-6A17,17,0,0,1,315.46,52q8.49,0,13.2,5.34t4.7,15.38v28.41H320.79v-26q0-5.1-2.46-7.89a8.51,8.51,0,0,0-6.69-2.77,10.82,10.82,0,0,0-7.59,2.65q-2.93,2.66-2.92,8.51v25.54Z"/><path class="cls-1" d="M343,87.46a26.88,26.88,0,0,1-1.93-10.28A27.37,27.37,0,0,1,343,66.84a23.61,23.61,0,0,1,5.17-8,23.15,23.15,0,0,1,7.57-5,23.49,23.49,0,0,1,9.1-1.8,20.53,20.53,0,0,1,9,2A13.14,13.14,0,0,1,380,59.52V32.3h12.58v68.84H380V94.63a13.33,13.33,0,0,1-6.1,5.53,20.53,20.53,0,0,1-9,2,23.44,23.44,0,0,1-9.07-1.79,23.76,23.76,0,0,1-7.58-5A23,23,0,0,1,343,87.46ZM354.26,77a12.78,12.78,0,0,0,3.64,9.45,12.23,12.23,0,0,0,9,3.65A12.62,12.62,0,0,0,379.75,77a12.07,12.07,0,0,0-3.84-9.37,12.89,12.89,0,0,0-9-3.53,12.33,12.33,0,0,0-9,3.58A12.47,12.47,0,0,0,354.26,77Z"/><path class="cls-1" d="M403.52,90.22a25.24,25.24,0,0,1-3.43-13.16,25.32,25.32,0,0,1,3.43-13.18,23.33,23.33,0,0,1,9.13-8.81,27.2,27.2,0,0,1,25.07,0,23.27,23.27,0,0,1,9.13,8.84,25.31,25.31,0,0,1,3.43,13.15,25.24,25.24,0,0,1-3.43,13.13A23.19,23.19,0,0,1,437.72,99a27.28,27.28,0,0,1-25.07,0A23.25,23.25,0,0,1,403.52,90.22Zm9.14-13.16a12.59,12.59,0,0,0,3.62,9.34,12.87,12.87,0,0,0,17.81,0,12.59,12.59,0,0,0,3.62-9.34,12.12,12.12,0,0,0-3.62-9.14,13.08,13.08,0,0,0-17.79,0A12.13,12.13,0,0,0,412.66,77.06Z"/><path class="cls-2" d="M70.25,0A70.25,70.25,0,1,0,140.5,70.25,70.34,70.34,0,0,0,70.25,0Zm0,8.92a61.36,61.36,0,0,1,57.46,39.85c-4.53-2.69-13.49-3.54-25-2.58-1.26.1-2.72,1,.06,1.21,3.3.24,8.22,1.31,9.6,4.12,2.68,5.47-7.53,9-11,10.78v0c-.11-.44-.23-.88-.36-1.33A32.11,32.11,0,1,0,39.44,79.12c.13.44.27.87.42,1.31l0,0c-3.83.36-14.33,2.9-15-3.15-.36-3.11,3.19-6.67,5.84-8.66,2.23-1.67.52-1.64-.6-1C19.75,73,12.62,78.62,10.34,83.36A61.32,61.32,0,0,1,70.25,8.92Zm0,122.66A61.34,61.34,0,0,1,12.61,91.25c5.64,3.52,18.62,4,34.94,1.54A32.12,32.12,0,0,0,101.63,76.9c14.91-6.69,25.5-14,28.48-20a61.34,61.34,0,0,1-59.86,74.69Z"/></g></g></svg>